PathFileType	4	(X/Y/Z)	/Users/itak/Documents/Research/Walk-IL/dataset/trc/00226_00009.trc
DataRate	CameraRate	NumFrames	NumMarkers	Units	OrigDataRate	OrigDataStartFrame	OrigNumFrames
100.000000	100.000000	4	53	mm	100.000000	341	455
Frame#	Time	RPSI			LPSI			L3			STRN			T10			C7			CLAV			RBAK			LBAK			LSHO			LUPA			LAEL			LAOL			LWTS			LWPS			LFRA			LIFD			LHPS			LHTS			RSHO			RUPA			RAEL			RAOL			RWTS			RWPS			RFRA			RIFD			RHTS			RHPS			RBHD			LFHD			RFHD			LBHD			LHIP			RHIP			RASI			LASI			LKNE			LTHI			LANK			LTIP			LTOE			LMT1			LMT5			LHEE			RKNE			RANK			RTIP			RTOE			RMT1			RMT5			RHEE			RTHI			
		X1	Y1	Z1	X2	Y2	Z2	X3	Y3	Z3	X4	Y4	Z4	X5	Y5	Z5	X6	Y6	Z6	X7	Y7	Z7	X8	Y8	Z8	X9	Y9	Z9	X10	Y10	Z10	X11	Y11	Z11	X12	Y12	Z12	X13	Y13	Z13	X14	Y14	Z14	X15	Y15	Z15	X16	Y16	Z16	X17	Y17	Z17	X18	Y18	Z18	X19	Y19	Z19	X20	Y20	Z20	X21	Y21	Z21	X22	Y22	Z22	X23	Y23	Z23	X24	Y24	Z24	X25	Y25	Z25	X26	Y26	Z26	X27	Y27	Z27	X28	Y28	Z28	X29	Y29	Z29	X30	Y30	Z30	X31	Y31	Z31	X32	Y32	Z32	X33	Y33	Z33	X34	Y34	Z34	X35	Y35	Z35	X36	Y36	Z36	X37	Y37	Z37	X38	Y38	Z38	X39	Y39	Z39	X40	Y40	Z40	X41	Y41	Z41	X42	Y42	Z42	X43	Y43	Z43	X44	Y44	Z44	X45	Y45	Z45	X46	Y46	Z46	X47	Y47	Z47	X48	Y48	Z48	X49	Y49	Z49	X50	Y50	Z50	X51	Y51	Z51	X52	Y52	Z52	X53	Y53	Z53	

342	3.41	364.4866027832031	1043.794555664062	-56.20487976074219	368.4619750976562	1054.283569335938	63.21535491943359	364.6959533691406	1137.59716796875	14.26206588745117	103.1310424804688	1301.1318359375	29.57208633422852	361.4580383300781	1263.726928710938	2.24292778968811	275.5220947265625	1519.192626953125	8.9886474609375	119.7449645996094	1420.67041015625	25.83844184875488	356.7421569824219	1386.773315429688	-72.29167175292969	308.5550231933594	1483.514282226562	118.9318008422852	224.6011810302734	1476.490844726562	183.8359985351562	268.8998718261719	1359.724975585938	258.3085632324219	271.5698547363281	1147.892456054688	285.2710876464844	336.6256103515625	1134.441284179688	229.2384948730469	166.9834594726562	920.07373046875	233.4779205322266	203.6828918457031	897.4729614257812	306.9869079589844	249.9993591308594	1040.401489257812	299.2728271484375	152.8040161132812	728.0443725585938	230.0399780273438	180.3512268066406	810.2791748046875	300.4542236328125	129.1042785644531	820.4971313476562	255.6048583984375	203.8226165771484	1469.097290039062	-152.5062866210938	221.5234832763672	1405.625854492188	-221.551513671875	250.5516510009766	1125.755615234375	-262.7480773925781	296.3405456542969	1119.502319335938	-179.1579742431641	125.0433959960938	909.926025390625	-206.4564056396484	170.4846954345703	895.69873046875	-275.7919006347656	225.1373596191406	1056.765380859375	-272.5744934082031	111.4905242919922	717.5709228515625	-197.8007965087891	83.75067138671875	789.3755493164062	-217.3030853271484	131.1201324462891	788.4991455078125	-272.1730651855469	207.0569305419922	1673.771484375	-38.76865005493164	7.905944347381592	1687.781616210938	70.40282440185547	1.015079855918884	1682.531494140625	-30.16857147216797	170.8547210693359	1679.377319335938	96.62480926513672	269.4548034667969	999.6087036132812	207.9637908935547	268.0702819824219	994.6788330078125	-160.0284576416016	171.9267578125	1037.707763671875	-121.9473190307617	168.5613250732422	1035.883911132812	157.2517700195312	114.7895431518555	528.5490112304688	176.1015930175781	157.1328735351562	667.4304809570312	203.216064453125	237.8117523193359	52.40283203125	176.6929016113281	182.4860992431641	304.4034118652344	186.4296722412109	25.68495941162109	66.50529479980469	128.4613647460938	91.37679290771484	57.10096740722656	83.75173187255859	111.3453063964844	50.32183837890625	195.2743072509766	298.9744873046875	63.61778259277344	124.2826919555664	230.294189453125	504.4421997070312	-98.56919097900391	356.5479125976562	33.01762008666992	-57.73097229003906	232.7620391845703	383.3128356933594	-75.21936798095703	146.9031829833984	42.2526969909668	-8.312968254089355	202.4377899169922	38.34894561767578	32.47378158569336	244.7349395751953	33.36764144897461	-81.02313232421875	420.1527099609375	35.57015609741211	1.079633235931396	210.5172271728516	769.6514282226562	-151.3641510009766	
343	3.42	365.603271484375	1043.817504882812	-56.3973503112793	369.1806030273438	1054.278442382812	63.02062225341797	365.8175048828125	1137.421020507812	14.14209461212158	104.7146682739258	1301.634765625	28.67686462402344	363.0770874023438	1263.624633789062	2.134405136108398	277.5980834960938	1519.285888671875	8.505825996398926	121.5236587524414	1421.114868164062	24.94491386413574	358.7944030761719	1386.685424804688	-72.46942901611328	310.3198547363281	1483.508056640625	118.5197296142578	226.2321014404297	1476.708984375	183.25146484375	270.0847778320312	1359.794555664062	257.7802734375	272.2266235351562	1147.965209960938	284.6448059082031	337.2979431152344	1134.456665039062	228.6013336181641	168.6057891845703	919.4991455078125	233.3871307373047	205.3161315917969	897.3657836914062	306.951416015625	250.9915161132812	1040.452392578125	298.8577575683594	155.4526062011719	727.3515625	230.7514343261719	182.5021667480469	810.0546875	300.7777099609375	131.2517547607422	819.7924194335938	255.8658447265625	206.2671203613281	1469.303833007812	-153.1870574951172	224.1116943359375	1405.824096679688	-222.1699829101562	253.1472320556641	1125.987426757812	-263.4288635253906	298.7292175292969	1119.75634765625	-179.7580261230469	127.5946044921875	909.6962280273438	-207.9151306152344	173.8206481933594	895.7529296875	-277.1047668457031	227.9276428222656	1056.98486328125	-273.3985900878906	115.5653991699219	717.154052734375	-199.5312805175781	87.60037231445312	788.9016723632812	-218.8543395996094	134.9569091796875	788.3528442382812	-273.7210998535156	209.2830505371094	1674.11376953125	-39.43611907958984	10.10880661010742	1688.170532226562	69.53767395019531	3.233270168304443	1682.957275390625	-31.07816505432129	172.9182434082031	1679.681884765625	95.92082977294922	269.7221374511719	999.6599731445312	207.4729766845703	269.4536437988281	994.8490600585938	-160.5600280761719	172.5264892578125	1038.178833007812	-123.0591583251953	168.9457092285156	1035.988403320312	156.3850402832031	116.6887283325195	527.970947265625	175.2745208740234	158.0979614257812	667.2654418945312	202.1221160888672	247.8399353027344	53.87546920776367	176.6260223388672	187.9434661865234	304.8434143066406	185.8939208984375	35.65809631347656	65.23084259033203	127.822639465332	101.5826721191406	56.51195526123047	83.26674652099609	121.3213348388672	50.22351455688477	194.8801574707031	308.9601440429688	65.8123779296875	124.26708984375	231.435791015625	504.6083679199219	-99.19889068603516	356.5637817382812	32.94025421142578	-57.79770278930664	233.7062835693359	383.5313415527344	-75.71585083007812	146.9207458496094	42.24484634399414	-8.374671936035156	202.4397735595703	38.38743209838867	32.43654251098633	244.7640533447266	33.29628753662109	-81.09027099609375	420.1427307128906	35.5631217956543	1.045983791351318	211.57275390625	769.6869506835938	-152.0838623046875	
344	3.43	366.5985717773438	1043.837036132812	-56.54026412963867	369.74267578125	1054.269897460938	62.88531494140625	366.7761840820312	1137.211669921875	14.08740329742432	106.1966094970703	1302.149047851562	27.8022632598877	364.5899658203125	1263.49267578125	2.093598127365112	279.6167297363281	1519.362060546875	8.078404426574707	123.2354736328125	1421.563842773438	24.08657646179199	360.7799987792969	1386.570556640625	-72.57706451416016	311.9989013671875	1483.479858398438	118.1640472412109	227.7752532958984	1476.923217773438	182.7117919921875	271.1784362792969	1359.862426757812	257.3077697753906	272.8324279785156	1148.04150390625	284.0923156738281	337.8784790039062	1134.483154296875	228.0078887939453	170.1893920898438	918.9080810546875	233.4766387939453	206.9673004150391	897.2535400390625	307.0701293945312	251.9472045898438	1040.511108398438	298.5429077148438	158.18603515625	726.6213989257812	231.673828125	184.6953887939453	809.8240966796875	301.2782897949219	133.395263671875	819.0603637695312	256.33935546875	208.6717529296875	1469.506103515625	-153.8255462646484	226.6653442382812	1406.010375976562	-222.7408599853516	255.6847839355469	1126.206909179688	-264.0412902832031	301.0233459472656	1119.981811523438	-180.2671508789062	130.0152130126953	909.45458984375	-209.3789978027344	177.1148376464844	895.81298828125	-278.4161071777344	230.6656036376953	1057.195922851562	-274.1657104492188	119.6561965942383	716.70751953125	-201.309814453125	91.45983123779297	788.3898315429688	-220.4388580322266	138.7758026123047	788.19482421875	-275.2883605957031	211.4869079589844	1674.457763671875	-40.06327819824219	12.29640197753906	1688.599365234375	68.74745178222656	5.438634872436523	1683.43408203125	-31.91279983520508	174.9884490966797	1679.987548828125	95.26792144775391	269.8470153808594	999.6952514648438	207.0203552246094	270.7474670410156	995.0206298828125	-161.0637512207031	173.1324462890625	1038.627319335938	-124.1239700317383	169.1544342041016	1036.064208984375	155.518310546875	118.8223037719727	527.2713623046875	174.5077056884766	159.1720428466797	666.9970703125	201.1010131835938	257.5650634765625	55.23116302490234	176.6099700927734	193.3950042724609	305.161376953125	185.4107513427734	45.38817596435547	64.09747314453125	127.2572174072266	111.5208358764648	56.00087738037109	82.84722137451172	131.0296173095703	50.1639518737793	194.535400390625	318.6598815917969	67.83061981201172	124.3138732910156	232.5585327148438	504.7643127441406	-99.82015228271484	356.5776977539062	32.86149978637695	-57.86625289916992	234.6376800537109	383.7444763183594	-76.21774291992188	146.9410247802734	42.24312973022461	-8.437525749206543	202.4633331298828	38.43115234375	32.39901351928711	244.7953186035156	33.21848297119141	-81.16343688964844	420.132080078125	35.5582275390625	1.009955763816833	212.5274047851562	769.7068481445312	-152.7718200683594	
345	3.44	367.4703979492188	1043.8544921875	-56.64788436889648	370.159423828125	1054.255859375	62.7971076965332	367.5823669433594	1136.974975585938	14.08466625213623	107.5691909790039	1302.665649414062	26.94072532653809	365.9859008789062	1263.3271484375	2.109294891357422	281.5700378417969	1519.419921875	7.706058025360107	124.8766021728516	1422.015014648438	23.25920295715332	362.6919555664062	1386.431396484375	-72.61888885498047	313.5846252441406	1483.427856445312	117.8679885864258	229.21240234375	1477.126586914062	182.2129364013672	272.1691284179688	1359.928100585938	256.8950500488281	273.3820190429688	1148.12353515625	283.628662109375	338.3745727539062	1134.522827148438	227.4898223876953	171.7295684814453	918.3058471679688	233.7208557128906	208.6230163574219	897.1401977539062	307.3361206054688	252.8588714599609	1040.578247070312	298.3351440429688	161.0138702392578	725.8618774414062	232.7677154541016	186.9088439941406	809.5894165039062	301.9329833984375	135.5193023681641	818.3087768554688	256.9834289550781	211.0347290039062	1469.707397460938	-154.4229736328125	229.1816101074219	1406.18505859375	-223.2660217285156	258.1724548339844	1126.413330078125	-264.5772399902344	303.2218017578125	1120.183715820312	-180.6701507568359	132.4299926757812	909.1932983398438	-210.8259582519531	180.3740692138672	895.8776245117188	-279.7173156738281	233.3597564697266	1057.397216796875	-274.8709716796875	123.722282409668	716.2455444335938	-203.1413879394531	95.29009246826172	787.846923828125	-222.0750274658203	142.5678253173828	788.0298461914062	-276.8807373046875	213.6692962646484	1674.792236328125	-40.65345001220703	14.46101188659668	1689.072998046875	68.025390625	7.631179809570312	1683.966430664062	-32.67748641967773	177.0614929199219	1680.286743164062	94.65927124023438	269.8480834960938	999.7051391601562	206.6004486083984	271.9434814453125	995.1927490234375	-161.5428161621094	173.7944030761719	1039.037475585938	-125.1130828857422	169.2275695800781	1036.108520507812	154.6710052490234	121.19677734375	526.4527587890625	173.799072265625	160.374267578125	666.6201171875	200.1531219482422	266.9059448242188	56.42705154418945	176.6356811523438	198.8189392089844	305.33642578125	184.9769287109375	54.79285430908203	63.09989166259766	126.7526931762695	121.1028137207031	55.54827880859375	82.48367309570312	140.3890075683594	50.11125946044922	194.2325286865234	327.9944458007812	69.61268615722656	124.4153747558594	233.6686706542969	504.9118347167969	-100.4270706176758	356.5881958007812	32.78488159179688	-57.93290328979492	235.5576782226562	383.9518432617188	-76.720703125	146.9644927978516	42.24882507324219	-8.50123119354248	202.5132141113281	38.48136901855469	32.36195373535156	244.8283538818359	33.13717269897461	-81.23995971679688	420.1217651367188	35.55527877807617	0.9725423455238342	213.4139251708984	769.7260131835938	-153.42919921875	
